<mxfile host="app.diagrams.net" modified="2023-12-16T13:14:51.778Z" agent="Mozilla/5.0 (Macintosh; Intel Mac OS X 10_15_7) AppleWebKit/537.36 (KHTML, like Gecko) Chrome/120.0.0.0 Safari/537.36" etag="q-XX8Es-Fb7MFZdZRc7N" version="22.1.11" type="github">
  <diagram name="Page-1" id="41brcPASJaUT04Qfd3Yz">
    <mxGraphModel dx="1459" dy="1078" grid="1" gridSize="10" guides="1" tooltips="1" connect="1" arrows="1" fold="1" page="1" pageScale="1" pageWidth="850" pageHeight="1100" math="0" shadow="0">
      <root>
        <mxCell id="0" />
        <mxCell id="1" parent="0" />
        <mxCell id="Eaw_PiJLIjpgf7GiLRQP-1" value="" style="rounded=0;whiteSpace=wrap;html=1;" vertex="1" parent="1">
          <mxGeometry x="50" y="190" width="910" height="520" as="geometry" />
        </mxCell>
        <mxCell id="Eaw_PiJLIjpgf7GiLRQP-2" value="Main canva where chat &lt;br&gt;bubbles are displayed.&lt;br&gt;(screen record here when creating a video)" style="rounded=0;whiteSpace=wrap;html=1;fontSize=23;" vertex="1" parent="1">
          <mxGeometry x="80" y="210" width="500" height="480" as="geometry" />
        </mxCell>
        <mxCell id="Eaw_PiJLIjpgf7GiLRQP-3" value="&lt;font style=&quot;font-size: 20px;&quot;&gt;List of items:&lt;br&gt;Has properties like &lt;br&gt;content, avatarUrl&lt;br&gt;&lt;/font&gt;" style="rounded=0;whiteSpace=wrap;html=1;" vertex="1" parent="1">
          <mxGeometry x="600" y="210" width="340" height="350" as="geometry" />
        </mxCell>
        <mxCell id="Eaw_PiJLIjpgf7GiLRQP-4" value="&lt;font style=&quot;font-size: 20px;&quot;&gt;Input field (to append to the above list)&lt;/font&gt;" style="rounded=0;whiteSpace=wrap;html=1;" vertex="1" parent="1">
          <mxGeometry x="610" y="500" width="320" height="50" as="geometry" />
        </mxCell>
        <mxCell id="Eaw_PiJLIjpgf7GiLRQP-5" value="&lt;div style=&quot;text-align: left; font-size: 20px;&quot;&gt;&lt;span style=&quot;background-color: initial;&quot;&gt;&lt;font style=&quot;font-size: 20px;&quot;&gt;Controller: can do things like&lt;/font&gt;&lt;/span&gt;&lt;/div&gt;&lt;font style=&quot;font-size: 20px;&quot;&gt;&lt;div style=&quot;text-align: left;&quot;&gt;&lt;span style=&quot;background-color: initial;&quot;&gt;1) Play the animation&lt;/span&gt;&lt;/div&gt;&lt;div style=&quot;text-align: left;&quot;&gt;&lt;span style=&quot;background-color: initial;&quot;&gt;2) select until which item to display&lt;/span&gt;&lt;/div&gt;&lt;/font&gt;" style="rounded=0;whiteSpace=wrap;html=1;" vertex="1" parent="1">
          <mxGeometry x="600" y="570" width="340" height="120" as="geometry" />
        </mxCell>
      </root>
    </mxGraphModel>
  </diagram>
</mxfile>
